<svg xmlns="http://www.w3.org/2000/svg" xmlns:xlink="http://www.w3.org/1999/xlink">
  <symbol id="home" x="0" y="0" viewBox="0 0 32 32">
    <path fill="currentColor" opacity=".5" d="M24 29.966H8c-1.654 0-3-1.394-3-3.107V10h2v16.858c0 .611.449 1.107 1 1.107h16c.551 0 1-.497 1-1.107V10h2v16.858c0 1.713-1.346 3.107-3 3.107z"></path>
    <path fill="currentColor" d="M30 14.071a.994.994 0 0 1-.62-.216L16 3.275 2.62 13.855a.997.997 0 0 1-1.404-.164.998.998 0 0 1 .164-1.404l13.38-10.58a1.992 1.992 0 0 1 2.481 0L30.62 12.288a.998.998 0 0 1-.621 1.784z"></path>
  </symbol>

  <symbol id="exit" x="0" y="0" viewBox="0 0 32 32">
    <path fill="currentColor" opacity=".5" d="M11 29H6a3 3 0 0 1-3-3V6a3 3 0 0 1 3-3h5a1 1 0 0 1 0 2H6a1 1 0 0 0-1 1v20a1 1 0 0 0 1 1h5a1 1 0 0 1 0 2z"></path>
    <path fill="currentColor" d="m28.707 15.293-5-5a1 1 0 0 0-1.414 1.414L25.586 15H9a1 1 0 0 0 0 2h16.586l-3.293 3.293a1 1 0 1 0 1.414 1.414l5-5a1 1 0 0 0 0-1.414z"></path>
  </symbol>

  <symbol id="language" x="0" y="0" viewBox="0 0 32 32">
    <path fill="currentColor" opacity=".5" d="M29.61 24.7a9.329 9.329 0 0 0 1.332-4.817c0-5.174-4.209-9.383-9.382-9.383-.599 0-1.178.076-1.745.184-.107-5.081-4.266-9.184-9.373-9.184-5.174 0-9.383 4.209-9.383 9.382 0 1.708.459 3.364 1.332 4.818l-1.293 4.525a1 1 0 0 0 1.457 1.143l3.684-2.104a9.37 9.37 0 0 0 4.203 1.001c.597 0 1.18-.062 1.746-.169.115 5.075 4.27 9.169 9.372 9.169a9.373 9.373 0 0 0 4.203-1.001l3.684 2.104a1.002 1.002 0 0 0 1.113-.081 1 1 0 0 0 .344-1.062L29.611 24.7zM6.729 17.256a.998.998 0 0 0-1-.005l-2.034 1.162.741-2.595a.998.998 0 0 0-.131-.831 7.347 7.347 0 0 1-1.247-4.105c0-4.07 3.312-7.382 7.382-7.382s7.383 3.312 7.383 7.382-3.312 7.383-7.383 7.383a7.376 7.376 0 0 1-3.712-1.009zm20.834 7.562.741 2.595-2.034-1.162a.999.999 0 0 0-1 .005 7.376 7.376 0 0 1-3.712 1.009c-4.071 0-7.383-3.312-7.383-7.383 0-.138.015-.272.023-.409 2.749-1.208 4.816-3.692 5.433-6.703a7.248 7.248 0 0 1 1.926-.27c4.071 0 7.382 3.312 7.382 7.383a7.339 7.339 0 0 1-1.247 4.104.998.998 0 0 0-.131.831z"></path>
    <path d="m25.978 23.106-3-7a.999.999 0 0 0-1.838 0l-3 7a.999.999 0 1 0 1.838.787l.597-1.394h2.967l.597 1.394a.997.997 0 0 0 1.313.525 1 1 0 0 0 .525-1.312zM21.433 20.5l.626-1.461.626 1.461h-1.253zM14 8h-2.5V6.5a1 1 0 1 0-2 0V8H7a1 1 0 1 0 0 2h.528c.087 1.029.415 2.497 1.399 3.779-.219.097-.44.191-.682.253a1 1 0 0 0 .501 1.936 6.331 6.331 0 0 0 1.752-.749 6.266 6.266 0 0 0 1.753.749 1 1 0 1 0 .501-1.936 4.43 4.43 0 0 1-.682-.253c.984-1.283 1.313-2.75 1.399-3.779h.528a1 1 0 1 0 0-2zm-3.5 4.549c-.638-.844-.876-1.823-.957-2.549h1.915c-.081.726-.319 1.705-.957 2.549z" fill="currentColor"></path>
  </symbol>

  <symbol id="account" x="0" y="0" viewBox="0 0 32 32">
    <path fill="currentColor" d="M16 16c-3.859 0-7-3.14-7-7s3.141-7 7-7 7 3.14 7 7-3.141 7-7 7zm0-12c-2.757 0-5 2.243-5 5s2.243 5 5 5 5-2.243 5-5-2.243-5-5-5z"></path>
    <path fill="currentColor" opacity=".5" d="M26.02 29.986H5.98a1 1 0 0 1-1-1c0-6.076 4.943-11.019 11.02-11.019s11.02 4.943 11.02 11.019a1 1 0 0 1-1 1zm-18.984-2h17.929c-.499-4.504-4.329-8.019-8.965-8.019s-8.466 3.515-8.965 8.019z"></path>
  </symbol>

  <symbol id="github" viewBox="0 0 512 512" fill="none">
    <circle cx="256" cy="256" r="241" stroke="currentColor" stroke-width="34" opacity=".5"/>
    <path d="M302.791 477.5C273.995 483.5 241.587 483.5 212.791 477.5C198.393 474.5 212.791 407.3 212.791 407.3C212.791 390.5 217.291 384.5 223.291 376.398C226.346 372.906 228.189 369.773 241.889 349.102L218.791 345.5C159.389 336.8 135.991 305.898 126.689 281.898C114.689 249.801 120.99 209.598 142.592 184.102C145.892 180.199 148.592 173.598 146.193 166.699C141.689 152.899 142.291 131 145.291 122.598C161.197 124.871 177.553 136.266 191.193 144.5C197.479 148.168 200.775 147.2 203.791 147.5C214.751 145.219 231.85 139.7 258.091 139.7C274.291 139.7 291.393 142.098 308.193 146.898C311.197 146.828 316.025 149.383 324.393 144.5C338.65 135.813 354.451 124.809 370.291 122.598C373.291 131 373.893 152.898 369.393 166.699C366.99 173.598 369.689 180.199 372.994 184.102C394.592 209.602 400.893 249.801 388.893 281.898C379.592 305.898 356.193 336.801 296.791 345.5L273.693 349.102C287.853 370.469 289.346 373.032 292.295 376.398C298.291 384.5 302.791 390.5 302.791 407.301V477.5ZM332.791 468.8V407.3C332.791 390.2 329.189 378.8 324.389 370.398C369.99 358.102 402.393 331.098 416.791 292.398C432.091 251.602 425.193 203 399.689 169.398C404.193 149.301 404.193 117.199 393.393 102.199C388.591 95.602 381.99 92 373.591 92H373.29C350.028 93.258 331.72 104.973 312.09 116.898C294.09 112.098 275.79 109.699 257.49 109.699C238.892 109.699 220.29 112.399 203.794 116.899C183.131 104.437 164.998 93.226 141.091 92C133.591 92 126.989 95.602 122.188 102.2C111.392 117.2 111.392 149.3 115.892 169.398C90.3878 203 83.4888 251.898 98.7898 292.398C113.188 331.098 145.59 358.102 191.192 370.398C187.47 376.91 184.524 385.313 183.364 396.684C174.154 399.859 166.165 400.894 158.735 398.711C150.899 396.395 144.794 391.164 139.489 382.242C127.575 362.227 101.544 344.524 84.1768 348.012C66.8096 351.5 68.3132 374.5 86.8128 377.895C105.312 381.29 108.161 388.235 113.693 397.566C122.817 412.934 135.11 423.012 150.239 427.48C161.469 430.79 171.735 430.71 182.79 428.352V468.8C223.806 483 263.806 491.5 332.791 468.8Z" fill="currentColor"/>
  </symbol>

  <symbol id="graphiql" viewBox="0 0 100 100" fill="currentColor">
    <style>svg{fill:color(display-p3 0.8824 0 0.5961);}</style>
    <path fill-rule="evenodd" clip-rule="evenodd" d="M50 6.90308L87.323 28.4515V71.5484L50 93.0968L12.677 71.5484V28.4515L50 6.90308ZM16.8647 30.8693V62.5251L44.2795 15.0414L16.8647 30.8693ZM50 13.5086L18.3975 68.2457H81.6025L50 13.5086ZM77.4148 72.4334H22.5852L50 88.2613L77.4148 72.4334ZM83.1353 62.5251L55.7205 15.0414L83.1353 30.8693V62.5251Z" opacity=".5" stroke="currentColor" stroke-width="2"/>
    <circle cx="50" cy="9.3209" r="8.82"/>
    <circle cx="85.2292" cy="29.6605" r="8.82"/>
    <circle cx="85.2292" cy="70.3396" r="8.82"/>
    <circle cx="50" cy="90.6791" r="8.82"/>
    <circle cx="14.7659" cy="70.3396" r="8.82"/>
    <circle cx="14.7659" cy="29.6605" r="8.82"/>
  </symbol>

  <symbol id="eyeOpened" x="0" y="0" viewBox="0 0 128 128">
    <path d="M64 104C22.127 104 1.367 67.496.504 65.943a4 4 0 0 1 0-3.887C1.367 60.504 22.127 24 64 24s62.633 36.504 63.496 38.057a4 4 0 0 1 0 3.887C126.633 67.496 105.873 104 64 104zM8.707 63.994C13.465 71.205 32.146 96 64 96c31.955 0 50.553-24.775 55.293-31.994C114.535 56.795 95.854 32 64 32 32.045 32 13.447 56.775 8.707 63.994zM64 88c-13.234 0-24-10.766-24-24s10.766-24 24-24 24 10.766 24 24-10.766 24-24 24zm0-40c-8.822 0-16 7.178-16 16s7.178 16 16 16 16-7.178 16-16-7.178-16-16-16z" fill="currentColor"></path>
  </symbol>

  <symbol id="eyeClosed" x="0" y="0" viewBox="0 0 128 128">
    <path d="m79.891 65.078 7.27-7.27C87.69 59.787 88 61.856 88 64c0 13.234-10.766 24-24 24-2.144 0-4.213-.31-6.192-.839l7.27-7.27a15.929 15.929 0 0 0 14.813-14.813zm47.605-3.021c-.492-.885-7.47-13.112-21.11-23.474l-5.821 5.821c9.946 7.313 16.248 15.842 18.729 19.602C114.553 71.225 95.955 96 64 96c-4.792 0-9.248-.613-13.441-1.591l-6.573 6.573C50.029 102.835 56.671 104 64 104c41.873 0 62.633-36.504 63.496-38.057a3.997 3.997 0 0 0 0-3.886zm-16.668-39.229-88 88C22.047 111.609 21.023 112 20 112s-2.047-.391-2.828-1.172a3.997 3.997 0 0 1 0-5.656l11.196-11.196C10.268 83.049 1.071 66.964.504 65.943a4 4 0 0 1 0-3.887C1.367 60.504 22.127 24 64 24c10.827 0 20.205 2.47 28.222 6.122l12.95-12.95c1.563-1.563 4.094-1.563 5.656 0s1.563 4.094 0 5.656zM34.333 88.011 44.46 77.884C41.663 73.96 40 69.175 40 64c0-13.234 10.766-24 24-24 5.175 0 9.96 1.663 13.884 4.459l8.189-8.189C79.603 33.679 72.251 32 64 32 32.045 32 13.447 56.775 8.707 63.994c3.01 4.562 11.662 16.11 25.626 24.017zm15.934-15.935 21.809-21.809C69.697 48.862 66.958 48 64 48c-8.822 0-16 7.178-16 16 0 2.958.862 5.697 2.267 8.076z" fill="currentColor"></path>
  </symbol>

</svg>
