<svg xmlns="http://www.w3.org/2000/svg" xmlns:xlink="http://www.w3.org/1999/xlink">
  <symbol id="home" x="0" y="0" viewBox="0 0 32 32">
    <path fill="currentColor" opacity=".5" d="M24 29.966H8c-1.654 0-3-1.394-3-3.107V10h2v16.858c0 .611.449 1.107 1 1.107h16c.551 0 1-.497 1-1.107V10h2v16.858c0 1.713-1.346 3.107-3 3.107z"></path>
    <path fill="currentColor" d="M30 14.071a.994.994 0 0 1-.62-.216L16 3.275 2.62 13.855a.997.997 0 0 1-1.404-.164.998.998 0 0 1 .164-1.404l13.38-10.58a1.992 1.992 0 0 1 2.481 0L30.62 12.288a.998.998 0 0 1-.621 1.784z"></path>
  </symbol>

  <symbol id="exit" x="0" y="0" viewBox="0 0 32 32">
    <path fill="currentColor" opacity=".5" d="M11 29H6a3 3 0 0 1-3-3V6a3 3 0 0 1 3-3h5a1 1 0 0 1 0 2H6a1 1 0 0 0-1 1v20a1 1 0 0 0 1 1h5a1 1 0 0 1 0 2z"></path>
    <path fill="currentColor" d="m28.707 15.293-5-5a1 1 0 0 0-1.414 1.414L25.586 15H9a1 1 0 0 0 0 2h16.586l-3.293 3.293a1 1 0 1 0 1.414 1.414l5-5a1 1 0 0 0 0-1.414z"></path>
  </symbol>

  <symbol id="language" x="0" y="0" viewBox="0 0 32 32">
    <path fill="currentColor" opacity=".5" d="M29.61 24.7a9.329 9.329 0 0 0 1.332-4.817c0-5.174-4.209-9.383-9.382-9.383-.599 0-1.178.076-1.745.184-.107-5.081-4.266-9.184-9.373-9.184-5.174 0-9.383 4.209-9.383 9.382 0 1.708.459 3.364 1.332 4.818l-1.293 4.525a1 1 0 0 0 1.457 1.143l3.684-2.104a9.37 9.37 0 0 0 4.203 1.001c.597 0 1.18-.062 1.746-.169.115 5.075 4.27 9.169 9.372 9.169a9.373 9.373 0 0 0 4.203-1.001l3.684 2.104a1.002 1.002 0 0 0 1.113-.081 1 1 0 0 0 .344-1.062L29.611 24.7zM6.729 17.256a.998.998 0 0 0-1-.005l-2.034 1.162.741-2.595a.998.998 0 0 0-.131-.831 7.347 7.347 0 0 1-1.247-4.105c0-4.07 3.312-7.382 7.382-7.382s7.383 3.312 7.383 7.382-3.312 7.383-7.383 7.383a7.376 7.376 0 0 1-3.712-1.009zm20.834 7.562.741 2.595-2.034-1.162a.999.999 0 0 0-1 .005 7.376 7.376 0 0 1-3.712 1.009c-4.071 0-7.383-3.312-7.383-7.383 0-.138.015-.272.023-.409 2.749-1.208 4.816-3.692 5.433-6.703a7.248 7.248 0 0 1 1.926-.27c4.071 0 7.382 3.312 7.382 7.383a7.339 7.339 0 0 1-1.247 4.104.998.998 0 0 0-.131.831z"></path>
    <path d="m25.978 23.106-3-7a.999.999 0 0 0-1.838 0l-3 7a.999.999 0 1 0 1.838.787l.597-1.394h2.967l.597 1.394a.997.997 0 0 0 1.313.525 1 1 0 0 0 .525-1.312zM21.433 20.5l.626-1.461.626 1.461h-1.253zM14 8h-2.5V6.5a1 1 0 1 0-2 0V8H7a1 1 0 1 0 0 2h.528c.087 1.029.415 2.497 1.399 3.779-.219.097-.44.191-.682.253a1 1 0 0 0 .501 1.936 6.331 6.331 0 0 0 1.752-.749 6.266 6.266 0 0 0 1.753.749 1 1 0 1 0 .501-1.936 4.43 4.43 0 0 1-.682-.253c.984-1.283 1.313-2.75 1.399-3.779h.528a1 1 0 1 0 0-2zm-3.5 4.549c-.638-.844-.876-1.823-.957-2.549h1.915c-.081.726-.319 1.705-.957 2.549z" fill="currentColor"></path>
  </symbol>

  <symbol id="account" x="0" y="0" viewBox="0 0 32 32">
    <path fill="currentColor" opacity=".5" d="M16 16c-3.859 0-7-3.14-7-7s3.141-7 7-7 7 3.14 7 7-3.141 7-7 7zm0-12c-2.757 0-5 2.243-5 5s2.243 5 5 5 5-2.243 5-5-2.243-5-5-5z"></path>
    <path fill="currentColor" d="M26.02 29.986H5.98a1 1 0 0 1-1-1c0-6.076 4.943-11.019 11.02-11.019s11.02 4.943 11.02 11.019a1 1 0 0 1-1 1zm-18.984-2h17.929c-.499-4.504-4.329-8.019-8.965-8.019s-8.466 3.515-8.965 8.019z"></path>
  </symbol>

</svg>
