<?xml version="1.0" standalone="no"?>
<!DOCTYPE svg PUBLIC "-//W3C//DTD SVG 20010904//EN"
 "http://www.w3.org/TR/2001/REC-SVG-20010904/DTD/svg10.dtd">
<svg version="1.0" xmlns="http://www.w3.org/2000/svg"
 width="700.000000pt" height="700.000000pt" viewBox="0 0 700.000000 700.000000"
 preserveAspectRatio="xMidYMid meet">
<metadata>
Created by potrace 1.14, written by Peter Selinger 2001-2017
</metadata>
<g transform="translate(0.000000,700.000000) scale(0.100000,-0.100000)"
fill="#000000" stroke="none">
<path d="M3414 6919 c-232 -31 -425 -198 -500 -432 -19 -62 -22 -88 -19 -182
3 -60 6 -123 7 -139 3 -30 -26 -49 -467 -301 -74 -42 -619 -357 -773 -446
l-152 -89 -58 47 c-116 95 -264 144 -414 138 -94 -4 -101 -5 -182 -34 -312
-110 -477 -451 -372 -765 60 -179 184 -308 360 -377 l71 -28 0 -811 0 -811
-72 -28 c-355 -139 -498 -564 -299 -890 84 -137 226 -237 385 -274 57 -13 209
-15 264 -3 91 21 204 79 279 145 l36 31 73 -43 c41 -24 94 -55 119 -69 25 -14
86 -49 135 -78 50 -29 110 -64 135 -77 25 -14 50 -29 55 -33 6 -4 30 -19 55
-32 25 -14 117 -67 205 -118 88 -51 178 -103 200 -115 22 -13 126 -73 230
-133 l190 -110 -4 -39 c-13 -109 -6 -249 16 -318 101 -319 443 -501 759 -404
305 94 489 411 418 719 -7 30 -12 56 -11 57 1 1 112 65 247 143 135 78 274
159 310 180 36 21 157 91 270 156 113 64 285 164 382 221 97 57 181 103 186
103 5 0 19 -12 33 -26 82 -90 259 -164 401 -169 300 -11 553 183 622 478 18
77 14 221 -9 297 -52 172 -180 318 -340 390 -27 12 -54 23 -60 24 -46 12 -44
-41 -42 828 l2 811 53 18 c186 63 335 225 390 425 26 94 23 241 -6 334 -80
246 -305 416 -562 425 -158 5 -288 -39 -411 -138 l-60 -47 -222 129 c-122 71
-238 138 -257 150 -19 11 -48 28 -65 37 -16 9 -145 83 -286 165 -141 81 -278
160 -305 175 -49 27 -102 58 -139 81 -59 36 -109 63 -117 63 -6 0 -6 19 -1 48
16 93 9 242 -14 317 -42 133 -138 260 -254 335 -114 73 -276 108 -415 89z
m-342 -1048 c-1 -7 -77 -141 -169 -299 -91 -158 -175 -303 -185 -322 -11 -19
-72 -125 -136 -235 -64 -110 -122 -211 -129 -225 -8 -14 -22 -39 -32 -55 -10
-17 -71 -122 -136 -235 -65 -113 -165 -285 -222 -383 -56 -98 -103 -182 -103
-187 0 -6 -4 -10 -10 -10 -5 0 -10 -4 -10 -10 0 -5 -14 -33 -31 -62 -44 -73
-124 -213 -133 -229 -4 -8 -12 -23 -19 -34 -7 -11 -42 -71 -77 -133 -36 -62
-81 -140 -101 -175 -20 -34 -71 -123 -114 -197 -43 -74 -112 -195 -154 -267
-42 -73 -82 -133 -88 -133 -10 0 -13 170 -13 818 l0 818 53 17 c118 38 251
144 317 253 19 32 47 94 62 138 24 73 26 93 24 196 -2 63 -7 124 -11 136 -6
18 16 33 192 135 109 62 207 119 218 125 11 6 181 104 378 218 197 114 377
218 400 231 23 12 80 46 127 74 82 49 108 57 102 32z m1261 -208 c215 -124
413 -238 438 -252 25 -14 166 -96 313 -181 232 -135 266 -158 261 -175 -3 -11
-8 -61 -12 -111 -18 -277 158 -538 415 -615 l42 -12 0 -819 c0 -499 -4 -818
-9 -818 -12 0 -38 37 -78 110 -17 30 -104 181 -193 335 -167 288 -185 318
-221 383 -12 20 -88 152 -169 292 -81 140 -157 272 -169 293 -39 68 -57 100
-238 412 -98 171 -284 492 -413 715 -128 223 -264 458 -301 522 -61 104 -80
148 -64 148 3 0 182 -102 398 -227z m-838 45 c44 0 96 3 115 7 19 4 41 8 49 9
8 0 87 -126 196 -314 291 -505 637 -1102 655 -1135 10 -16 43 -75 75 -130 31
-55 65 -113 75 -130 204 -352 463 -802 484 -840 16 -27 32 -54 36 -60 4 -5 18
-30 32 -55 14 -25 84 -147 157 -272 72 -125 134 -234 137 -242 3 -8 -4 -25
-16 -38 -60 -62 -124 -173 -136 -238 -4 -16 -12 -30 -18 -31 -6 -1 -834 -2
-1839 -3 -1210 0 -1831 2 -1836 9 -4 6 -18 37 -31 70 -27 70 -76 149 -115 187
-16 16 -25 34 -21 43 3 8 47 86 97 172 50 87 100 172 109 189 10 16 86 149
170 295 84 145 278 480 430 744 152 264 438 759 635 1100 197 341 363 629 369
640 24 43 24 43 68 33 24 -5 79 -10 123 -10z m1848 -3767 c4 0 7 -10 7 -21 0
-13 -13 -26 -38 -39 -20 -10 -75 -42 -120 -70 -46 -28 -86 -51 -89 -51 -3 0
-42 -22 -87 -49 -44 -27 -171 -100 -281 -163 -110 -64 -329 -190 -487 -282
-158 -91 -291 -166 -296 -166 -5 0 -17 10 -28 21 -10 12 -41 38 -69 58 -227
167 -559 148 -762 -42 l-32 -30 -73 43 c-40 23 -89 51 -108 62 -19 11 -168 97
-330 191 -162 94 -308 178 -323 186 -16 9 -36 21 -45 26 -10 6 -133 77 -275
159 -141 82 -257 152 -257 156 0 3 2 9 5 11 3 4 3667 4 3688 0z"/>
</g>
</svg>
